<svg width="15" height="16" viewBox="0 0 15 16" fill="none" xmlns="http://www.w3.org/2000/svg">
<path fill-rule="evenodd" clip-rule="evenodd" d="M6.55329 0.1875H8.29745C9.54146 0.190469 9.82709 0.202023 10.4872 0.233784C11.2776 0.271803 11.8174 0.404204 12.2898 0.597815C12.7781 0.797923 13.1922 1.06571 13.6051 1.50108C14.018 1.93649 14.2719 2.37323 14.4617 2.88822C14.6452 3.38636 14.7708 3.95566 14.8068 4.78923C14.8418 5.5967 14.8509 5.87283 14.8515 7.81158V8.22474C14.8509 10.1635 14.8418 10.4396 14.8068 11.2471C14.7708 12.0806 14.6452 12.6499 14.4617 13.1481C14.2719 13.6631 14.018 14.0998 13.6051 14.5352C13.1922 14.9706 12.7781 15.2384 12.2898 15.4385C11.8174 15.6321 11.2776 15.7645 10.4872 15.8025C9.72148 15.8394 9.45964 15.849 7.62126 15.8496H7.22948C5.39107 15.849 5.12924 15.8394 4.36356 15.8025C3.57313 15.7645 3.0333 15.6321 2.56094 15.4385C2.07261 15.2384 1.65847 14.9706 1.2456 14.5352C0.832754 14.0998 0.578829 13.6631 0.389078 13.1481C0.205488 12.6499 0.0799402 12.0806 0.0438884 11.2471C0.0137715 10.551 0.00281544 10.2497 0 8.93784V7.09848C0.00281544 5.78655 0.0137715 5.48533 0.0438884 4.78923C0.0799402 3.95566 0.205488 3.38636 0.389078 2.88822C0.578829 2.37323 0.832754 1.93649 1.2456 1.50108C1.65847 1.06571 2.07261 0.797923 2.56094 0.597815C3.0333 0.404204 3.57313 0.271803 4.36356 0.233784C5.02363 0.202023 5.30926 0.190469 6.55329 0.1875H8.29745H6.55329ZM7.97008 1.59799H6.88065C5.39003 1.59963 5.1293 1.60949 4.42455 1.6434C3.70051 1.67822 3.3073 1.8058 3.04562 1.91305C2.69899 2.05512 2.45161 2.22482 2.19176 2.49889C1.93188 2.77292 1.77096 3.0338 1.63624 3.39936C1.53454 3.67532 1.41356 4.08999 1.38055 4.85355C1.34839 5.59677 1.33904 5.87173 1.33749 7.44371V8.59261C1.33904 10.1646 1.34839 10.4395 1.38055 11.1827C1.41356 11.9463 1.53454 12.361 1.63624 12.6369C1.77096 13.0025 1.93191 13.2634 2.19176 13.5374C2.45161 13.8115 2.69899 13.9812 3.04562 14.1232C3.3073 14.2305 3.70051 14.3581 4.42455 14.3929C5.20752 14.4306 5.44235 14.4386 7.42537 14.4386C9.40837 14.4386 9.64322 14.4306 10.4262 14.3929C11.1502 14.3581 11.5434 14.2305 11.8051 14.1232C12.1517 13.9812 12.3991 13.8115 12.659 13.5374C12.9188 13.2634 13.0798 13.0025 13.2145 12.6369C13.3162 12.361 13.4372 11.9463 13.4702 11.1827C13.5059 10.3569 13.5135 10.1092 13.5135 8.01816C13.5135 5.92705 13.5059 5.67935 13.4702 4.85355C13.4372 4.08999 13.3162 3.67532 13.2145 3.39936C13.0798 3.0338 12.9188 2.77292 12.659 2.49889C12.3991 2.22482 12.1517 2.05512 11.8051 1.91305C11.5434 1.8058 11.1502 1.67822 10.4262 1.6434C9.72141 1.60949 9.46068 1.59963 7.97008 1.59799ZM7.42537 4.1024C9.47605 4.1024 11.1384 5.85553 11.1384 8.01816C11.1384 10.1808 9.47605 11.9339 7.42537 11.9339C5.37467 11.9339 3.71228 10.1808 3.71228 8.01816C3.71228 5.85553 5.37467 4.1024 7.42537 4.1024ZM7.42537 5.47635C6.09421 5.47635 5.01511 6.61434 5.01511 8.01816C5.01511 9.42195 6.09421 10.5599 7.42537 10.5599C8.75651 10.5599 9.8356 9.42195 9.8356 8.01816C9.8356 6.61434 8.75651 5.47635 7.42537 5.47635ZM11.4478 2.79715C11.9605 2.79715 12.3761 3.23545 12.3761 3.77611C12.3761 4.31676 11.9605 4.75503 11.4478 4.75503C10.9352 4.75503 10.5196 4.31676 10.5196 3.77611C10.5196 3.23545 10.9352 2.79715 11.4478 2.79715Z" fill="#B8924D"/>
</svg>
