<svg width="30" height="38" viewBox="0 0 30 38" fill="none" xmlns="http://www.w3.org/2000/svg">
<g clip-path="url(#clip0_323_68)">
<path d="M23.2344 31.8353C23.9576 31.8052 24.1864 31.5601 24.215 30.7777C24.2231 30.5799 24.215 30.3779 24.215 30.1801C24.215 25.4339 24.215 20.6833 24.215 15.9371C24.215 11.1908 24.215 6.44031 24.215 1.69407C24.215 1.49631 24.2068 1.29425 24.215 1.09649C24.2517 0.335547 23.8636 -0.0341779 23.1936 0.00451427C23.0506 0.0131125 22.9117 0.00451427 22.7687 0.00451427C16.6772 0.00451427 10.5775 0.00451427 4.48189 0.00451427C4.3389 0.00451427 4.19591 0.0131125 4.057 0.00451427C3.65253 -0.0255796 3.32977 0.137787 3.04787 0.438726C2.48816 1.0449 1.9121 1.63388 1.34421 2.23146C1.04188 2.5496 0.755894 2.88063 0.441309 3.17727C0.114467 3.48681 -0.0366973 3.84794 0.00824348 4.30364C0.012329 4.35093 0.00824348 4.40252 0.00824348 4.45411C0.00824348 13.1513 0.00824348 21.8527 0.00824348 30.5541C0.00824348 30.7261 0.00415796 30.9024 0.0205001 31.0743C0.0654408 31.4999 0.286059 31.7493 0.694611 31.8095C0.87846 31.8396 1.07048 31.8353 1.25841 31.8353C8.48979 31.8353 15.7171 31.8353 22.9485 31.8353C23.0424 31.8353 23.1364 31.8353 23.2304 31.8353H23.2344ZM22.593 30.1715C22.017 30.2661 2.25528 30.2704 1.6016 30.1715C1.57708 30.0683 1.53214 29.9523 1.52397 29.8319C1.51172 29.6083 1.5158 29.3848 1.5158 29.1612C1.5158 21.1863 1.5158 13.2071 1.5158 5.23226C1.5158 5.13338 1.52397 5.0302 1.5158 4.93562C1.46678 4.5014 1.63428 4.18757 1.92844 3.89093C2.65975 3.15148 3.36654 2.38623 4.06108 1.65538C4.91087 1.5737 22.0578 1.59519 22.6053 1.67688C22.6298 1.78435 22.6706 1.90043 22.6788 2.02081C22.6911 2.21857 22.687 2.41633 22.687 2.61839C22.687 11.4875 22.687 20.3609 22.687 29.23C22.687 29.5438 22.7564 29.8749 22.5971 30.1715H22.593ZM29.4649 4.97861C29.3546 4.93992 29.2361 4.92272 29.1176 4.90982C28.227 4.81094 27.3322 4.71636 26.4375 4.62608C26.2496 4.60888 26.0575 4.59169 25.8737 4.60458C25.4856 4.63468 25.2037 4.92272 25.1628 5.30534C25.122 5.69226 25.3303 6.019 25.7225 6.14367C25.8778 6.19096 26.0453 6.20816 26.2087 6.22535C26.797 6.28984 27.3853 6.34143 27.9696 6.40592C28.1044 6.41882 28.2351 6.47041 28.3699 6.5091C28.3781 6.64237 28.3985 6.74125 28.3904 6.83583C27.4834 16.6035 26.5764 26.3711 25.6653 36.1387C25.6653 36.1602 25.6449 36.1817 25.6286 36.1989C25.6122 36.2161 25.5959 36.2333 25.5591 36.2677C25.5142 36.2763 25.4447 36.3021 25.3793 36.2978C18.4013 35.5841 11.4191 34.8662 4.44104 34.1439C4.37567 34.1353 4.31438 34.0966 4.22042 34.0579C4.20816 33.8387 4.21225 33.6151 4.17548 33.4044C4.0856 32.8972 3.57899 32.6349 3.13775 32.8499C2.90896 32.9616 2.76189 33.1594 2.72512 33.4174C2.66792 33.8344 2.61072 34.2557 2.59438 34.677C2.56578 35.309 2.79457 35.5755 3.41148 35.6529C4.20816 35.7518 5.00892 35.8335 5.8056 35.9194C7.56646 36.1043 9.33141 36.2849 11.0923 36.4611C13.3475 36.689 15.6068 36.9125 17.862 37.1404C18.9896 37.2522 20.1172 37.3682 21.2448 37.4886C22.8422 37.6563 24.4397 37.8369 26.0371 38.0002C26.7521 38.0733 27.0585 37.8111 27.1279 37.0759C27.3241 35.051 27.512 33.0218 27.6999 30.9926C27.9165 28.6668 28.1207 26.341 28.3373 24.0195C28.5497 21.6936 28.7703 19.3721 28.9869 17.0463C29.1544 15.2406 29.3219 13.435 29.4894 11.6294C29.6528 9.87531 29.8121 8.11697 29.9715 6.36293C29.9919 6.13937 30.0082 5.91582 29.996 5.69226C29.9837 5.32684 29.7835 5.09468 29.4608 4.98721L29.4649 4.97861Z" fill="#343434"/>
<path d="M5.96078 4.35935C5.96078 4.72907 5.97712 5.10309 5.95669 5.47282C5.92809 5.91563 5.70747 6.16498 5.28666 6.17788C4.55536 6.19937 3.82813 6.19507 3.09682 6.16928C2.75364 6.15638 2.54528 5.92853 2.51668 5.63189C2.47991 5.27076 2.65967 4.99132 3.00286 4.93973C3.25616 4.90104 3.51763 4.90533 3.77911 4.90104C4.69835 4.88814 4.74329 4.84085 4.75963 3.89934C4.75963 3.64999 4.75963 3.40064 4.78006 3.15559C4.81683 2.76437 5.03745 2.55371 5.36837 2.55371C5.69113 2.55371 5.91583 2.77297 5.9526 3.16849C5.9812 3.43933 5.96895 3.71448 5.97303 3.98532C5.97303 4.11 5.97303 4.23467 5.97303 4.35505H5.96486L5.96078 4.35935Z" fill="#B8924D"/>
</g>
<defs>
<clipPath id="clip0_323_68">
<rect width="30" height="38" fill="white"/>
</clipPath>
</defs>
</svg>
