<svg width="35" height="33" viewBox="0 0 35 33" fill="none" xmlns="http://www.w3.org/2000/svg">
<g clip-path="url(#clip0_323_59)">
<path d="M35.0001 20.6808C35.0001 19.7923 35.0001 19.7881 34.1051 19.7881C27.4901 19.7881 20.8709 19.7881 14.2559 19.7881C14.087 19.7881 13.9139 19.7881 13.7451 19.8051C13.5467 19.8263 13.4411 19.9326 13.4285 20.1452C13.3736 20.9613 13.4496 21.0719 14.2348 21.0634C14.3572 21.0634 14.4796 21.0634 14.602 21.0634C16.0922 21.0634 17.5824 21.0634 19.0683 21.0634C23.5346 21.0634 28.0051 21.0634 32.4714 21.0634C32.7416 21.0634 33.0075 21.0634 33.2735 21.0931C33.5563 21.1229 33.6788 21.2377 33.6999 21.5097C33.7252 21.8285 33.7294 22.1474 33.7083 22.4662C33.683 22.8105 33.5563 22.921 33.1891 22.9593C32.9695 22.9805 32.75 22.9763 32.5305 22.9763C30.9179 22.9763 29.3096 22.9763 27.697 22.9763C27.4774 22.9763 27.2579 22.9848 27.0426 23.0188C26.9582 23.0316 26.8485 23.0996 26.8105 23.1718C26.6712 23.4481 26.6712 23.7457 26.7809 24.0263C26.8822 24.2856 27.1397 24.2303 27.355 24.2388C27.5028 24.2431 27.6463 24.2388 27.7941 24.2388C28.7228 24.2388 29.6515 24.2388 30.576 24.2388C30.7913 24.2388 31.0192 24.1963 31.243 24.3961C31.2599 24.4726 31.2936 24.5874 31.3021 24.7064C31.357 25.4673 31.3105 28.4983 31.2388 29.0211C30.8757 29.2634 30.5 29.1912 30.1412 29.1912C24.915 29.1954 19.6931 29.1912 14.467 29.1912C14.2221 29.1912 13.9773 29.1954 13.7366 29.2124C13.5762 29.2252 13.4707 29.3229 13.4327 29.4845C13.2723 30.2326 13.4454 30.4494 14.2263 30.4579C14.2981 30.4579 14.3741 30.4579 14.4459 30.4579C16.3033 30.4579 18.1565 30.4579 20.0139 30.4579C23.4333 30.4579 26.8485 30.4579 30.2678 30.4579C30.5127 30.4579 30.7533 30.4707 30.9981 30.5047C31.1543 30.5259 31.2641 30.6365 31.2852 30.798C31.3063 30.968 31.3105 31.1423 31.3147 31.3124C31.319 31.6567 31.3063 32.001 31.319 32.3453C31.3316 32.7152 31.4372 32.8087 31.8171 32.8257C31.9395 32.8342 32.0619 32.83 32.1844 32.8257C32.5432 32.8002 32.6361 32.7024 32.6529 32.3156C32.6614 32.12 32.6529 31.9245 32.6529 31.7247C32.6529 29.5865 32.6529 27.4483 32.6529 25.3101C32.6529 25.0635 32.6529 24.8169 32.6783 24.5746C32.6994 24.3748 32.8091 24.2771 33.016 24.2558C33.1848 24.2388 33.3579 24.2388 33.5268 24.2346C33.8434 24.2346 34.16 24.2388 34.4808 24.2303C34.903 24.2176 34.9705 24.141 34.9916 23.6947C34.9958 23.5714 34.9916 23.4481 34.9916 23.3249C34.9916 22.4407 34.9916 21.5565 34.9916 20.668L35.0001 20.6808ZM14.0533 24.2431C16.1302 24.2431 18.2029 24.2473 20.2799 24.2431C20.8793 24.2431 20.9553 24.1538 20.9384 23.5629C20.9384 23.5119 20.9384 23.4651 20.9342 23.4141C20.9089 23.1336 20.8076 23.023 20.5247 22.989C20.3812 22.972 20.2335 22.972 20.0857 22.972C18.1312 22.972 16.1809 22.9678 14.2263 22.972C13.4665 22.972 13.3778 23.0783 13.4243 23.8265C13.4285 23.92 13.4665 24.0135 13.5045 24.1793C13.724 24.2048 13.8886 24.2388 14.0533 24.2388V24.2431Z" fill="#B8924D"/>
<path d="M7.69586 21.9986C7.23994 21.9859 6.78825 21.9349 6.24368 22.0412C6.23524 22.3472 6.21835 22.5895 6.21835 22.8318C6.21835 25.9265 6.21835 29.0212 6.21835 32.1116C6.21835 32.3072 6.21835 32.507 6.23524 32.6982C6.24368 32.7875 6.30278 32.8725 6.34078 32.9576C6.82202 33.0001 7.27793 33.0128 7.75918 32.9448C7.77606 32.7578 7.80139 32.6132 7.80139 32.4729C7.80561 32.0053 7.80139 31.542 7.80139 31.0744C7.80139 28.324 7.80139 25.5737 7.80139 22.8233C7.80139 22.5598 7.85205 22.2877 7.69586 21.9986ZM23.3236 14.1769C22.4456 14.1004 21.5971 14.0366 20.8288 14.5553C20.6684 14.6658 20.4742 14.7168 20.3053 14.8188C20.1871 14.8868 20.0858 14.9889 19.9592 15.0909C20.1913 15.533 20.4024 15.9411 20.605 16.3279C20.9512 16.3322 21.1538 16.1239 21.4029 16.0346C21.5253 15.9921 21.6604 15.9836 21.8461 15.9496C21.8461 16.5234 21.8377 17.0421 21.8461 17.5564C21.8461 17.718 21.901 17.8752 21.9348 18.058H23.3152C23.4207 17.5012 23.4672 15.4565 23.4039 14.534C23.3954 14.4192 23.349 14.3045 23.3194 14.1812L23.3236 14.1769ZM32.7501 12.9357C32.6446 11.027 31.5217 9.61143 29.7107 9.0248C28.9846 8.791 28.2416 8.65922 27.4818 8.65922C26.629 8.65922 25.7721 8.65922 24.9193 8.65922C24.2608 8.65922 23.6023 8.64221 22.9437 8.67197C21.6477 8.73148 20.5122 9.17358 19.6468 10.1853C19.2162 10.6869 18.8025 11.2055 18.393 11.7199C18.3043 11.8304 18.2537 11.9664 18.1777 12.1025C18.3086 12.2257 18.4057 12.332 18.5196 12.4213C18.7687 12.6168 19.0262 12.8039 19.347 13.0419C19.5328 12.8039 19.6637 12.6296 19.803 12.4638C20.1787 12.0132 20.5459 11.5541 20.9385 11.1163C21.4029 10.6019 22.0066 10.3511 22.6862 10.2873C22.9775 10.2576 23.2688 10.2363 23.5643 10.2363C24.7843 10.2321 26.0043 10.2321 27.2243 10.2363C27.811 10.2363 28.3936 10.3001 28.9635 10.4446C30.2932 10.7804 31.0573 11.6561 31.2009 13.0249C31.222 13.246 31.222 13.467 31.222 13.6881C31.222 14.9166 31.222 16.1451 31.222 17.3736C31.222 17.5862 31.1629 17.8157 31.357 18.0538C31.7792 18.0963 32.2309 18.1218 32.7079 18.024C32.7332 17.8625 32.7755 17.7222 32.7797 17.5819C32.7881 17.0888 32.7881 16.6 32.7839 16.1069C32.7797 15.0484 32.8092 13.9899 32.7543 12.9399L32.7501 12.9357ZM29.5545 14.1472C29.1872 14.1472 28.8495 14.1387 28.5118 14.1429C28.3978 14.1429 28.2796 14.1769 28.153 14.1982C28.0052 14.6275 28.0897 15.0441 28.077 15.4565C28.0643 15.8986 28.0643 16.3407 28.077 16.7785C28.0897 17.1866 28.0052 17.6074 28.1572 18.0325C28.6511 18.1048 29.1239 18.1516 29.6052 17.9985C29.622 17.854 29.6516 17.735 29.6516 17.6159C29.6516 16.6127 29.6558 15.6052 29.6516 14.602C29.6516 14.466 29.5967 14.33 29.5587 14.1514L29.5545 14.1472ZM23.5558 6.81431C24.7632 8.03433 26.8443 8.20862 28.2627 7.20965C29.1408 6.58901 29.6052 5.74733 29.6516 4.66759C29.66 4.42104 29.6516 4.17873 29.6516 3.93218H29.6431C29.6431 3.63886 29.66 3.3413 29.6431 3.04798C29.5798 2.20205 29.2421 1.47939 28.6004 0.931019C27.22 -0.24649 25.3373 -0.318756 23.8809 0.782236C23.0999 1.37312 22.6778 2.18504 22.6271 3.17126C22.6018 3.68562 22.6018 4.19999 22.6271 4.71435C22.6651 5.53053 22.9859 6.23193 23.56 6.81006L23.5558 6.81431ZM24.2059 3.30729C24.2144 2.6569 24.5268 2.18504 25.084 1.87898C25.865 1.45388 26.629 1.50064 27.372 1.981C27.7857 2.24881 28.0348 2.63139 28.0559 3.13725C28.0643 3.40506 28.0559 3.67712 28.0559 3.94918H28.0601C28.0601 4.19574 28.0643 4.44229 28.0601 4.68459C28.0474 5.22021 27.7815 5.61555 27.3593 5.91311C26.6755 6.39772 25.713 6.41897 25.008 5.96413C24.5056 5.6368 24.2059 5.18195 24.2017 4.56132C24.2017 4.14472 24.2017 3.72388 24.2017 3.30729H24.2059ZM16.2105 12.0302C15.5689 11.3926 14.885 10.7932 14.1716 10.2406C12.7911 9.17358 11.2123 8.65497 9.46886 8.65497C8.12644 8.65497 6.78403 8.65497 5.44161 8.65497C4.74929 8.65497 4.07808 8.75699 3.42798 8.98654C1.96736 9.5009 0.907776 10.4531 0.358988 11.9324C0.135252 12.5403 0.00860823 13.161 0.00438679 13.8071C0.000165342 14.9846 0.000165342 16.1664 0.00438679 17.3439C0.00438679 17.8412 0.118366 18.3131 0.325217 18.7679C0.768468 19.7584 1.52833 20.4173 2.47393 20.8849C2.66812 20.9784 2.87075 21.0592 3.09448 21.157C3.10293 21.4375 3.11137 21.7053 3.11137 21.9731C3.11137 23.9158 3.11137 25.8542 3.11137 27.7969C3.11137 29.2975 3.11137 30.7938 3.11137 32.2944C3.11137 32.507 3.05227 32.7408 3.26334 32.9703C3.67704 32.9703 4.12874 33.0383 4.58888 32.9363C4.70708 32.6217 4.66908 32.3242 4.66908 32.0351C4.66908 26.1391 4.66908 20.2388 4.66908 14.3427C4.66908 14.1727 4.67753 13.9984 4.66486 13.8284C4.6522 13.6881 4.6142 13.552 4.58465 13.399C4.09919 13.3267 3.65171 13.314 3.14936 13.416C3.0776 14.0749 3.11981 14.7083 3.11559 15.3417C3.10715 16.0048 3.11559 16.668 3.11559 17.3311V19.2568C2.99739 19.2908 2.97206 19.3078 2.95095 19.2993C2.88341 19.2781 2.80743 19.2653 2.74833 19.227C1.97158 18.7254 1.55788 18.0155 1.5621 17.0761C1.5621 16.0941 1.55366 15.1121 1.56632 14.1259C1.57054 13.7816 1.60854 13.4373 1.67186 13.1014C1.94625 11.6816 2.8032 10.8059 4.17095 10.4149C4.69441 10.2661 5.22631 10.2321 5.76666 10.2321C6.86423 10.2321 7.96181 10.2278 9.06361 10.2321C9.45198 10.2321 9.84457 10.2576 10.2329 10.2916C11.1237 10.3723 11.9553 10.6487 12.6983 11.146C13.2048 11.4861 13.7156 11.8347 14.1547 12.2598C15.2987 13.365 16.4047 14.5085 17.5234 15.6393C17.5994 15.72 17.6458 15.8305 17.7176 15.9496C17.1139 16.2854 16.5271 16.4044 15.9192 16.1791C15.628 16.0728 15.3536 15.8943 15.1003 15.7073C14.3742 15.1674 13.6608 14.6105 12.9431 14.0579C11.8413 13.2077 12.2803 13.3693 10.8957 13.3522C10.6593 13.3522 10.406 13.2842 10.157 13.5053C10.1527 13.7391 10.1401 14.0069 10.1401 14.2747C10.1401 20.1963 10.1401 26.1178 10.1401 32.0436C10.1401 32.2136 10.1274 32.3879 10.1485 32.558C10.1612 32.694 10.2118 32.83 10.2498 32.9661H11.6302C11.74 32.643 11.7062 32.3199 11.7062 32.0053C11.7062 26.7469 11.7062 21.4885 11.7062 16.2301C11.7062 16.0091 11.7062 15.788 11.7105 15.567C11.7105 15.448 11.7105 15.3162 11.9046 15.2737C12.006 15.3417 12.1284 15.4225 12.2424 15.5075C12.922 16.0303 13.5974 16.5532 14.2771 17.0718C14.9356 17.5777 15.6744 17.8837 16.5102 17.8625C17.9582 17.8285 19.1275 17.1951 20.1449 16.1409C19.9592 15.9283 19.8114 15.737 19.6468 15.5627C18.507 14.381 17.3841 13.1865 16.219 12.0302H16.2105ZM5.60624 7.40944C6.50119 7.8983 7.45524 7.97907 8.43883 7.71976C10.0556 7.29042 10.9801 5.84935 10.9168 4.48905C10.9084 4.31901 10.9168 4.14473 10.9168 3.97469H10.9042C10.9042 3.65587 10.9253 3.33705 10.9042 3.01823C10.8366 2.14253 10.4525 1.40712 9.77703 0.867255C8.75966 0.0510755 7.59876 -0.203981 6.33655 0.165851C4.81683 0.607948 3.905 1.82797 3.87545 3.43057C3.86701 3.84716 3.85434 4.26375 3.88389 4.68034C3.97254 5.89186 4.53822 6.82281 5.60624 7.40944ZM5.47538 3.22227C5.50493 2.69516 5.74977 2.28707 6.17192 1.98525C6.86845 1.48364 7.87316 1.46664 8.58658 1.94274C9.01717 2.2318 9.30001 2.62289 9.32534 3.15001C9.35066 3.66437 9.34644 4.17873 9.32956 4.6931C9.31689 5.13094 9.1016 5.48802 8.78499 5.78133C8.05046 6.45298 6.7587 6.45723 6.03261 5.78133C5.69912 5.47102 5.48804 5.09268 5.47538 4.62083C5.47116 4.37428 5.47538 4.13197 5.47538 3.88542C5.47538 3.66437 5.46694 3.44332 5.47538 3.22227Z" fill="#343434"/>
</g>
<defs>
<clipPath id="clip0_323_59">
<rect width="35" height="33" fill="white"/>
</clipPath>
</defs>
</svg>
