<svg width="33" height="37" viewBox="0 0 33 37" fill="none" xmlns="http://www.w3.org/2000/svg">
<g clip-path="url(#clip0_323_65)">
<path d="M32.9709 33.1493C32.8296 30.351 32.5802 27.561 32.2186 24.7836C31.9651 22.8332 31.4747 20.9538 30.6642 19.1537C29.4714 16.5141 28.2993 13.8703 27.1148 11.2308C26.7699 10.4664 26.3168 9.7982 25.523 9.43066C25.4607 9.40143 25.4108 9.34296 25.3402 9.28448C25.3402 8.79583 25.3235 8.31135 25.3402 7.83105C25.3817 6.8245 26.0384 6.17714 27.0442 6.15208C27.4764 6.13955 27.9087 6.16461 28.3409 6.13955C28.8895 6.11031 29.1763 5.81795 29.1721 5.2583C29.1721 4.84899 29.1264 4.43552 29.0558 4.03457C28.6609 1.85024 27.2063 0.417681 25.0201 0.0793805C24.5962 0.0125558 24.1598 2.61539e-05 23.7276 -0.00415039C20.5813 2.61539e-05 17.431 2.61539e-05 14.2847 2.61539e-05C13.4036 2.61539e-05 13.4036 2.61501e-05 12.9257 0.755981C12.402 0.755981 11.8534 0.751804 11.3006 0.755981C10.3987 0.764334 9.79607 1.16946 9.47189 2.00894C9.10199 2.97373 9.10615 3.94268 9.47189 4.90747C9.52176 5.04112 9.58826 5.17477 9.66723 5.29589C10.0205 5.83048 10.4985 6.15208 11.1635 6.15208C11.7619 6.15208 12.3604 6.16043 12.9548 6.16461C13.0213 6.27737 13.0836 6.35255 13.1168 6.44026C13.2665 6.80362 13.5657 6.92056 13.9231 6.94144C14.0686 6.9498 14.2141 6.93727 14.3554 6.9498C14.4884 6.96233 14.6172 7.00409 14.7627 7.0375C14.7378 7.17533 14.7253 7.27139 14.7004 7.3591C14.3055 8.80418 13.599 10.078 12.6597 11.2308C12.4768 11.4563 12.2648 11.6568 12.0861 11.8823C11.8201 12.2122 11.7869 12.5464 12.0196 12.8805C12.5059 13.5738 13.0794 14.1919 13.7444 14.7182C13.9855 14.9061 14.2598 14.9771 14.5549 14.856C14.9747 14.6806 15.3944 14.501 15.8142 14.313C15.9223 14.2629 16.022 14.1919 16.1134 14.1126C16.3878 13.8703 16.4584 13.507 16.3005 13.1937C16.1259 12.8554 15.756 12.6925 15.382 12.8178C15.1991 12.8763 15.037 12.9849 14.8583 13.0559C14.7087 13.1186 14.5507 13.1603 14.3928 13.2104C14.2432 13.0726 14.1143 12.9682 14.0021 12.8429C13.8941 12.7218 13.8068 12.5798 13.7153 12.4503C13.7694 12.3584 13.8026 12.2916 13.8442 12.2373C15.0204 10.7964 15.8391 9.17589 16.3046 7.37163C16.3379 7.23798 16.4002 7.11268 16.4501 6.98321C16.6039 6.9665 16.7244 6.95815 16.8408 6.94562C17.1733 6.91221 17.431 7.02497 17.6762 7.26721C18.4492 8.0357 18.4617 8.02734 18.3952 9.16337C18.3952 9.20931 18.3744 9.25525 18.3453 9.36802C18.2082 9.45155 18.0835 9.52255 17.9629 9.6019C16.9821 10.2493 16.6371 11.3519 17.0694 12.4545C17.1566 12.68 17.2439 12.9055 17.3603 13.1144C17.5889 13.532 17.6512 13.9706 17.6429 14.4383C17.6263 15.1609 17.6388 15.8876 17.6429 16.6101C17.6429 16.7772 17.6429 16.9526 17.6762 17.1155C17.751 17.4622 18.0585 17.7044 18.4035 17.7044C18.7235 17.7044 19.0228 17.5165 19.1142 17.1949C19.1724 16.9902 19.189 16.7689 19.1932 16.5517C19.2015 15.779 19.1932 15.0064 19.1973 14.2337C19.2056 13.6156 19.0726 13.0392 18.79 12.4921C18.6695 12.2582 18.5614 12.0118 18.4908 11.757C18.3578 11.2892 18.6321 10.8841 19.1142 10.8131C19.2306 10.7964 19.3553 10.8006 19.4758 10.8006C21.0842 10.8006 22.6968 10.8173 24.3053 10.7922C24.8871 10.7839 25.2695 11.0219 25.5147 11.5231C25.6851 11.8698 25.8389 12.2248 25.9968 12.5756C27.0192 14.8393 28.05 17.0988 29.0558 19.3708C29.4922 20.3607 29.9577 21.3505 30.1862 22.4197C30.4107 23.4806 30.6393 24.5498 30.7598 25.6231C30.9925 27.7114 31.1588 29.8039 31.3417 31.8963C31.3998 32.5437 31.4289 33.1994 31.4456 33.8509C31.4663 34.7823 30.9551 35.3419 30.0242 35.4213C29.808 35.438 29.5919 35.438 29.3758 35.438C28.1747 35.438 26.9735 35.438 25.7724 35.438C25.5563 35.438 25.336 35.4422 25.1282 35.4881C24.7624 35.5675 24.5671 35.8557 24.5754 36.2316C24.5879 36.5907 24.8165 36.8831 25.1697 36.9499C25.3318 36.9792 25.5064 36.975 25.6726 36.975C27.065 36.975 28.4614 36.975 29.8538 36.975C29.9743 36.975 30.0948 36.975 30.2153 36.9666C31.9568 36.833 33.0415 35.3879 32.9917 34.0013C32.9833 33.7131 32.9792 33.4207 32.9667 33.1326L32.9709 33.1493ZM13.0337 4.52322C12.402 4.6527 11.8284 4.59423 11.259 4.57752C11.1011 4.57334 10.9889 4.46893 10.9307 4.3311C10.6855 3.74639 10.6938 3.15749 10.9307 2.57278C10.9889 2.43495 11.097 2.33054 11.2549 2.32636C11.8243 2.31383 12.3978 2.25536 13.0005 2.3723C13.1044 3.07396 13.0545 3.76309 13.0296 4.52322H13.0337ZM23.8522 7.30063C23.8024 7.63475 23.8107 7.97305 23.7941 8.31135C23.7816 8.57447 23.7774 8.83342 23.7691 9.11742C23.1208 9.28448 22.4973 9.18425 21.8822 9.20095C21.2837 9.21766 20.6894 9.21766 20.0577 9.18842C20.0286 9.01301 19.9953 8.87518 19.987 8.74153C19.9787 8.45335 19.9787 8.16099 19.9828 7.87281C19.987 7.53869 19.8706 7.26721 19.6337 7.03333C19.2223 6.6282 18.8108 6.2189 18.416 5.80125C18.1292 5.50054 17.7967 5.37942 17.3852 5.38777C16.7119 5.40447 16.0386 5.39612 15.3695 5.38777C15.1575 5.38777 14.9456 5.36689 14.6962 5.35436C14.6629 5.22071 14.6214 5.10794 14.6172 4.99517C14.5466 3.62944 14.5881 2.105 14.717 1.57458C14.8915 1.55788 15.0786 1.52864 15.2656 1.52864C18.1001 1.52864 20.9346 1.52029 23.7691 1.52864C24.1764 1.52864 24.5879 1.57041 24.9869 1.64558C26.3335 1.89618 27.2645 2.84843 27.5055 4.19745C27.5221 4.28934 27.5055 4.3854 27.5055 4.55664C27.2312 4.57334 27.0192 4.59423 26.8073 4.5984C25.2362 4.63181 24.0517 5.95996 23.8564 7.29645L23.8522 7.30063ZM12.9963 17.7796C12.4186 16.9067 11.6871 16.18 10.7603 15.566C10.7603 14.9646 10.7728 14.4091 10.7603 13.8578C10.7395 12.9557 10.3114 12.2916 9.52176 11.8781C9.25161 11.7361 8.9399 11.5983 8.64065 11.5899C7.51433 11.5565 6.38385 11.5691 5.25753 11.5732C5.14116 11.5732 5.02063 11.6066 4.90426 11.6401C3.81118 11.9324 3.08385 12.8638 3.09217 13.887C3.09632 14.2963 3.07554 14.7098 3.09217 15.1191C3.10879 15.4449 2.99242 15.6537 2.71811 15.8375C1.82869 16.4431 1.15539 17.2575 0.60262 18.1763C0.211939 18.8321 -0.01665 19.5337 0.00828705 20.3064C0.0165994 20.6196 0.0249117 20.937 0.00828705 21.2461C-0.0291185 21.8392 0.174534 22.3362 0.561058 22.7664C0.881083 23.1256 1.21773 23.468 1.55023 23.8189C2.4438 24.7711 2.29418 24.4662 2.31081 25.8654C2.31081 26.1201 2.22768 26.3373 2.06144 26.5253C1.837 26.7759 1.6001 27.0181 1.38814 27.277C1.10136 27.632 0.814584 27.9871 0.556902 28.3671C0.195315 28.8975 0.0207556 29.4948 0.0207556 30.1421C0.0207556 31.3993 0.0207556 32.6523 0.0207556 33.9094C0.0207556 35.4505 1.21773 37.0209 3.15451 36.9959C5.58171 36.9624 8.00892 36.9875 10.432 36.9875C10.5982 36.9875 10.7728 36.9875 10.9349 36.9583C11.284 36.8873 11.5167 36.5907 11.5209 36.2316C11.5292 35.864 11.3214 35.5717 10.9556 35.5007C10.7229 35.4547 10.4777 35.4505 10.2408 35.4505C8.05463 35.4505 5.86849 35.4505 3.68234 35.4505C3.41635 35.4505 3.15451 35.4464 2.89267 35.4255C2.30249 35.3754 1.91597 35.0371 1.704 34.5066C1.60841 34.2686 1.56685 33.9929 1.5627 33.7298C1.55023 32.5729 1.55854 31.4118 1.55438 30.2549C1.55438 29.8289 1.67491 29.4405 1.92013 29.1022C2.14872 28.7931 2.39393 28.4966 2.63914 28.2001C2.85526 27.9411 3.08385 27.6947 3.30829 27.4399C3.67819 27.0264 3.86521 26.5461 3.84859 25.9865C3.84028 25.6482 3.83196 25.3099 3.84859 24.9716C3.88599 24.3242 3.65325 23.7938 3.22101 23.3344C2.93839 23.0378 2.65161 22.7497 2.37315 22.4448C1.4006 21.3923 1.57101 21.8225 1.55023 20.2813C1.54607 19.8846 1.64582 19.5212 1.82869 19.1704C2.21106 18.4311 2.72642 17.8046 3.36647 17.2742C3.64078 17.0487 3.93171 16.9401 4.28914 16.9443C5.41962 16.9568 6.54594 16.9484 7.67642 16.9484C8.29985 16.9484 8.92743 16.9651 9.55086 16.9443C9.93738 16.9317 10.2491 17.0529 10.5317 17.3118C11.0138 17.7503 11.471 18.2139 11.8035 18.7819C11.8658 18.8864 11.9157 18.9949 11.9905 19.091C12.2565 19.4377 12.6638 19.5337 13.0129 19.3416C13.3579 19.1537 13.4909 18.7485 13.3163 18.3351C13.2332 18.1388 13.1127 17.9508 12.9963 17.7712V17.7796ZM9.18927 15.1066C9.18927 15.1734 9.15186 15.2402 9.11861 15.3447C8.25413 15.4365 5.23675 15.4157 4.68814 15.3154C4.55514 14.8309 4.61332 14.3297 4.64657 13.8327C4.6632 13.5487 4.85023 13.3357 5.10791 13.2355C5.32403 13.152 5.56924 13.106 5.80199 13.1018C6.54179 13.0851 7.28574 13.0935 8.02554 13.0977C8.16685 13.0977 8.31232 13.0977 8.45363 13.1269C8.96484 13.2313 9.18096 13.4903 9.19758 14.0249C9.21005 14.384 9.19758 14.7432 9.18927 15.1066Z" fill="#343434"/>
<path d="M21.4624 22.3362C21.6785 22.5283 21.9237 22.5116 22.1606 22.5199C22.4017 22.5283 22.6428 22.5241 22.8797 22.5366C23.2703 22.5533 23.5031 22.7622 23.5904 23.1339C23.6278 23.2968 23.6569 23.4638 23.6693 23.6309C23.686 23.823 23.6818 24.0151 23.6818 24.2114C23.6818 27.7364 23.6818 31.2656 23.6735 34.7906C23.6735 35.225 23.6444 35.6593 23.5945 36.0895C23.5322 36.6116 23.3244 36.7954 22.7965 36.8496C22.5804 36.8705 22.3643 36.8664 22.1482 36.8664C19.4093 36.8664 16.6662 36.8664 13.9273 36.8664C13.6862 36.8664 13.4452 36.8664 13.2083 36.8413C12.7511 36.787 12.4726 36.503 12.4103 36.0436C12.3895 35.8765 12.3978 35.7053 12.3978 35.5382C12.3978 31.6248 12.3978 27.7114 12.3978 23.8021C12.3978 23.7771 12.3978 23.752 12.3978 23.7311C12.3562 22.8206 12.7428 22.4656 13.5906 22.5241C13.7818 22.5366 13.9771 22.5283 14.1683 22.5116C14.5673 22.474 14.6837 22.3654 14.6962 21.977C14.7128 21.5927 14.7128 21.2043 14.7045 20.8159C14.7003 20.4191 14.8042 20.0516 14.9788 19.7049C15.3237 19.0242 15.864 18.6441 16.6412 18.6441C17.5805 18.6441 18.5157 18.6357 19.455 18.6441C20.2737 18.6566 20.9304 19.1495 21.1881 19.9305C21.3253 20.3439 21.3793 20.7741 21.371 21.2127C21.3668 21.5927 21.3003 21.9853 21.4541 22.3362H21.4624ZM22.4474 29.7119C22.4474 27.9995 22.4557 26.283 22.4474 24.5706C22.4433 23.8606 22.3394 23.7645 21.6536 23.7604C19.2513 23.7562 16.8491 23.7562 14.4468 23.7604C13.7818 23.7604 13.6945 23.8564 13.6571 24.5038C13.6571 24.5748 13.6571 24.65 13.6571 24.721C13.6571 28.0288 13.6571 31.3366 13.6571 34.6444C13.6571 35.5382 13.7236 35.5967 14.5964 35.6009C16.9031 35.6009 19.2098 35.6009 21.5164 35.6009C21.6827 35.6009 21.8531 35.6009 22.0193 35.58C22.2396 35.5549 22.3685 35.4422 22.4017 35.2166C22.4391 34.9786 22.4474 34.7363 22.4474 34.4983C22.4474 32.9028 22.4474 31.3116 22.4474 29.7161V29.7119ZM18.046 22.5116V22.5199C18.4076 22.5199 18.7651 22.5199 19.1266 22.5199C19.2721 22.5199 19.4134 22.5199 19.5589 22.5116C19.9828 22.474 20.1033 22.3612 20.1283 21.9269C20.1491 21.5426 20.1532 21.1542 20.1158 20.77C20.0535 20.1602 19.7916 19.9138 19.1807 19.8971C18.4367 19.8762 17.6928 19.8929 16.9488 19.8971C16.8532 19.8971 16.7576 19.9138 16.662 19.9305C16.3171 19.9931 16.0885 20.2019 16.0552 20.5528C16.0095 21.0289 15.9763 21.5134 15.9887 21.9937C15.997 22.3779 16.1342 22.4949 16.5373 22.5116C17.0402 22.5325 17.5431 22.5157 18.0502 22.5157L18.046 22.5116Z" fill="#B8924D"/>
</g>
<defs>
<clipPath id="clip0_323_65">
<rect width="33" height="37" fill="white"/>
</clipPath>
</defs>
</svg>
