<svg width="37" height="24" viewBox="0 0 37 24" fill="none" xmlns="http://www.w3.org/2000/svg">
<g clip-path="url(#clip0_323_71)">
<path d="M30.5764 4.65442C30.9314 4.18769 31.3198 4.13631 31.7458 4.14059C32.8819 4.15343 34.0179 4.14487 35.1497 4.14487C35.2959 4.14487 35.4421 4.14487 35.5841 4.162C36.386 4.26048 36.954 4.86423 36.9874 5.69492C37.0125 6.31151 36.9874 6.93238 36.9916 7.55326C36.9916 8.19982 36.5781 8.82926 35.7971 9.04764C35.2165 9.21035 34.6235 9.34309 34.0388 9.49723C33.9009 9.53149 33.7715 9.59144 33.5919 9.65138C33.6503 9.79697 33.6754 9.91258 33.7339 10.0068C34.3269 10.9531 34.5775 12.0021 34.5901 13.1112C34.6068 14.4985 34.5984 15.8858 34.5901 17.2689C34.5901 18.0054 34.4146 18.6947 33.9928 19.2985C33.8425 19.5126 33.784 19.731 33.7882 19.9879C33.7965 20.6087 33.7882 21.2253 33.7882 21.8462C33.7882 22.0432 33.7923 22.2444 33.7756 22.4414C33.7046 23.2892 33.1116 23.9058 32.2804 23.9914C32.1134 24.0086 31.9421 24.0043 31.7751 24.0043C30.1588 24.0043 28.5382 24.0043 26.9219 24.0043C26.7298 24.0043 26.5335 24.0086 26.3456 23.9786C25.5604 23.863 24.9924 23.2378 24.9339 22.4243C24.9214 22.253 24.9255 22.0774 24.9339 21.9062C24.9339 21.812 24.959 21.7178 24.9798 21.5893C25.481 21.448 25.9697 21.4908 26.4917 21.5636L26.6003 22.2658C27.0723 22.3729 27.5275 22.3172 27.9786 22.3258C28.438 22.3343 28.8974 22.3258 29.3569 22.3258C29.8163 22.3258 30.2757 22.3301 30.7351 22.3258C31.1862 22.3172 31.6456 22.3643 32.1384 22.2744C32.2011 21.7306 32.1802 21.2296 32.1468 20.6901H4.91572C4.73613 21.1825 4.84472 21.6921 4.84889 22.2359C4.98254 22.2701 5.09531 22.3215 5.2039 22.3215C6.82022 22.3258 8.44072 22.3258 10.057 22.3215C10.1489 22.3215 10.245 22.2915 10.3786 22.2701L10.5081 21.6407C10.5457 21.6107 10.5791 21.5593 10.6209 21.5508C11.0719 21.478 11.523 21.4822 11.9615 21.5422C12.1161 22.1331 12.1119 22.5656 11.949 22.9509C11.6984 23.5461 11.2599 23.893 10.6334 23.9829C10.4663 24.0086 10.2951 24.0043 10.128 24.0043C8.46161 24.0043 6.79516 24.0043 5.12872 24.0043C5.0076 24.0043 4.88648 24.0043 4.76536 23.9957C3.87576 23.9186 3.2451 23.2678 3.21169 22.3472C3.18663 21.6321 3.19498 20.9128 3.20751 20.1934C3.21587 19.8123 3.14904 19.4783 2.92768 19.1486C2.56015 18.6048 2.41397 17.9839 2.41815 17.3202C2.41815 15.8858 2.41397 14.4471 2.41815 13.0127C2.4265 11.9508 2.7105 10.9616 3.2451 10.0496C3.30775 9.94683 3.35369 9.83122 3.42887 9.68992C3.28269 9.62569 3.16157 9.54862 3.02792 9.51008C2.46826 9.36021 1.90861 9.20607 1.3406 9.08189C0.572114 8.91061 0.00828042 8.34969 0.00410388 7.39054C0.00410388 6.87244 -0.00842575 6.35004 0.00410388 5.83194C0.0375162 4.8 0.638938 4.17056 1.64966 4.15343C2.9068 4.13202 4.15976 4.15343 5.4169 4.14059C5.80115 4.14059 6.12274 4.2562 6.40675 4.62444C6.55292 4.36753 6.66151 4.18341 6.75758 3.995C7.12929 3.24567 7.48429 2.48778 7.86436 1.73845C8.47413 0.539518 9.46815 0 10.7629 0C15.9293 0 21.0998 0.00428189 26.2704 0C26.7883 0 27.2769 0.0984835 27.7447 0.321142C28.2835 0.582337 28.7304 0.95058 29.0102 1.49438C29.4153 2.28225 29.8037 3.07868 30.2005 3.87083C30.3091 4.08921 30.4135 4.30758 30.5764 4.65013V4.65442ZM5.19972 5.84478C4.08459 5.75058 2.2135 5.78055 1.64549 5.90473C1.57031 6.37574 1.59119 6.85959 1.63713 7.3777C1.82508 7.44193 2.00049 7.51044 2.18426 7.55754C3.00286 7.77591 3.82146 7.98144 4.64007 8.19554C4.82801 8.24264 5.01596 8.29402 5.19137 8.37966C5.56726 8.56806 5.72597 8.97913 5.57979 9.38162C5.52132 9.54005 5.42943 9.68992 5.33755 9.8355C5.16631 10.1053 4.98672 10.3707 4.80713 10.6319C4.29341 11.3855 4.03864 12.2205 4.03864 13.1411C4.03864 14.4771 4.03864 15.813 4.03864 17.149C4.03864 17.2731 4.03864 17.3973 4.05535 17.5215C4.14306 18.3522 4.70689 18.9217 5.52132 19.003C5.71344 19.0202 5.90556 19.0159 6.10186 19.0159C14.3839 19.0159 22.6619 19.0159 30.9439 19.0159C31.1361 19.0159 31.3324 19.0244 31.5245 19.003C32.3097 18.9174 32.8526 18.3736 32.9487 17.5729C32.9779 17.3288 32.9779 17.0805 32.9779 16.8321C32.9779 15.8173 32.9445 14.8025 32.9863 13.7877C33.0489 12.4175 32.7148 11.1971 31.867 10.1267C31.7166 9.93827 31.583 9.72417 31.4869 9.49723C31.2614 8.97056 31.4702 8.50384 31.9964 8.31115C32.1551 8.25549 32.3222 8.21695 32.4851 8.17413C33.2577 7.97288 34.0304 7.77163 34.7989 7.57038C34.9827 7.52328 35.1623 7.45477 35.3878 7.38198C35.3627 6.86387 35.488 6.35433 35.3042 5.84478C35.1497 5.83194 35.0328 5.81053 34.9158 5.81053C34.0471 5.81053 33.1784 5.82765 32.3097 5.79768C31.9129 5.78483 31.6915 5.95611 31.4952 6.28153C31.2071 6.76967 30.8771 7.22783 30.5806 7.7074C30.3759 8.04139 30.1003 8.24264 29.7327 8.35397C29.2023 8.51668 28.6719 8.69224 28.154 8.88921C27.6904 9.06476 27.2226 9.11615 26.734 9.11186C23.5222 9.1033 20.3105 9.11186 17.1029 9.11186C14.81 9.11186 12.517 9.11186 10.2241 9.11186C9.91087 9.11186 9.58927 9.11186 9.29274 9.02194C8.57437 8.81213 7.86854 8.55094 7.15852 8.31115C6.87034 8.21695 6.64898 8.04139 6.4861 7.7802C6.21045 7.34344 5.92644 6.91525 5.64244 6.48278C5.49626 6.26012 5.33755 6.04175 5.2039 5.85334L5.19972 5.84478ZM18.4227 7.43336C21.1499 7.43336 23.8814 7.42052 26.6087 7.44193C27.5108 7.44621 28.3002 7.07368 29.1146 6.77823C29.4529 6.65406 29.5406 6.32864 29.3777 5.9818C28.8306 4.82569 28.2668 3.67386 27.7113 2.52203C27.4356 1.94826 26.9762 1.69563 26.3748 1.66994C26.2077 1.66137 26.0365 1.66994 25.8694 1.66994C20.9662 1.66994 16.0671 1.66994 11.1638 1.66994C11.0176 1.66994 10.8756 1.66994 10.7295 1.66994C10.0654 1.66994 9.57257 1.94826 9.27603 2.57342C8.73726 3.70812 8.18178 4.83425 7.64718 5.96896C7.46759 6.35004 7.572 6.64549 7.94789 6.80821C8.25696 6.94095 8.59108 7.0223 8.90432 7.15076C9.47651 7.3777 10.0612 7.44621 10.6752 7.44621C13.2605 7.43336 15.8416 7.44193 18.4268 7.44193L18.4227 7.43336Z" fill="#343434"/>
<path d="M24.9798 15.8944C24.8838 15.8944 24.7877 15.8944 24.6917 15.8944C20.5652 15.8944 16.4388 15.8944 12.3082 15.8944C12.1161 15.8944 11.9198 15.8944 11.7318 15.9158C11.523 15.9372 11.4061 16.0442 11.3935 16.2326C11.3351 17.1104 11.356 17.2303 12.1913 17.2132C12.2873 17.2132 12.3834 17.2132 12.4794 17.2132C14.4591 17.2132 16.4388 17.2132 18.4185 17.2132C20.4942 17.2132 22.57 17.2132 24.6457 17.2132C24.8629 17.2132 25.0801 17.2132 25.2973 17.1875C25.4936 17.1661 25.5854 17.0505 25.6105 16.8407C25.623 16.7422 25.623 16.6437 25.623 16.5452C25.623 16.0014 25.5437 15.92 24.9882 15.8986L24.9798 15.8944ZM30.7936 11.2656C30.4177 11.5268 30.1462 11.8779 29.8413 12.1862C29.6033 12.4303 29.3443 12.5416 29.006 12.5373C28.2375 12.5245 27.4649 12.5416 26.6964 12.5331C25.836 12.5245 25.8444 12.5844 25.8694 13.4794C25.8778 13.8134 25.9739 13.9161 26.3163 13.9204C27.4482 13.9332 28.5758 13.9204 29.7077 13.929C29.9666 13.929 30.1671 13.8219 30.3467 13.6378C30.7017 13.2696 31.0609 12.9099 31.4159 12.5373C31.512 12.4346 31.583 12.3061 31.6707 12.182C31.4368 11.7966 31.1695 11.5011 30.7936 11.2742V11.2656ZM10.3244 12.5331C9.57675 12.5416 8.83333 12.5159 8.08572 12.5416C7.66807 12.5545 7.33812 12.4217 7.07082 12.1006C6.92882 11.9336 6.77429 11.7795 6.6114 11.6339C6.49029 11.5225 6.34828 11.4369 6.21881 11.3427C5.80116 11.5054 5.59233 11.8308 5.3125 12.2376C5.73433 12.6829 6.1311 13.0726 6.49864 13.4922C6.77847 13.8091 7.09588 13.9461 7.51354 13.9375C8.47414 13.9161 9.43892 13.9332 10.3995 13.929C10.5206 13.929 10.6418 13.929 10.7587 13.9118C10.9926 13.8819 11.0803 13.7791 11.1095 13.5222C11.1137 13.4751 11.1137 13.4237 11.1179 13.3766C11.1304 12.593 11.0928 12.5288 10.3244 12.5373V12.5331Z" fill="#B8924D"/>
</g>
<defs>
<clipPath id="clip0_323_71">
<rect width="37" height="24" fill="white"/>
</clipPath>
</defs>
</svg>
