<svg width="39" height="29" viewBox="0 0 39 29" fill="none" xmlns="http://www.w3.org/2000/svg">
<g clip-path="url(#clip0_323_62)">
<path d="M38.7343 9.02624C38.4981 8.71528 38.2408 8.4171 37.971 8.1317C35.4575 5.44807 32.5309 3.36932 29.1487 1.94657C26.8799 0.98813 24.5225 0.413066 22.085 0.140443C20.0144 -0.0938417 17.948 -0.0299457 15.8859 0.272495C13.1869 0.66865 10.6102 1.47374 8.17695 2.71332C5.54125 4.05514 3.20917 5.81866 1.1723 7.97835C0.82228 8.3532 0.480693 8.74084 0.168626 9.14977C-0.101271 9.50333 -0.0422308 9.93356 0.257185 10.219C0.57347 10.5257 1.0247 10.5299 1.37894 10.2104C1.52232 10.0784 1.64462 9.92505 1.77535 9.77595C2.56395 8.86863 3.41581 8.0252 4.33515 7.24567C6.29189 5.58438 8.4595 4.28516 10.8337 3.32672C12.9086 2.48756 15.0635 1.98917 17.2817 1.76766C19.4282 1.55467 21.5663 1.65691 23.6918 2.04454C27.0022 2.64516 30.0428 3.91031 32.8176 5.82718C34.496 6.98583 35.9973 8.34894 37.3342 9.89523C37.4607 10.0443 37.5914 10.1934 37.7474 10.3084C38.0047 10.4958 38.2915 10.5044 38.574 10.3468C38.8565 10.1891 38.9788 9.93356 38.9957 9.51185C38.9367 9.4011 38.8608 9.19237 38.73 9.02198L38.7343 9.02624ZM32.8978 14.7769C32.0881 13.7162 31.1561 12.7876 30.1144 11.9612C27.0149 9.49055 23.4851 8.27653 19.5505 8.22115C14.8695 8.18281 10.2939 10.1466 6.96663 13.746C6.61661 14.1251 6.29189 14.5256 5.98826 14.9387C5.68463 15.3477 5.76054 15.8546 6.11899 16.123C6.44371 16.3658 6.9329 16.3104 7.24497 15.9781C7.37991 15.8376 7.49378 15.6757 7.62029 15.5223C8.81374 14.0655 10.2223 12.8643 11.8543 11.9314C14.7936 10.2488 17.9396 9.58427 21.2922 9.98894C25.4587 10.4916 28.8662 12.417 31.5314 15.6885C31.6537 15.8418 31.776 15.9994 31.9278 16.1187C32.2104 16.3445 32.6785 16.3189 32.9441 16.0846C33.2098 15.8503 33.2984 15.4755 33.1466 15.1432C33.0875 15.0112 32.9947 14.8919 32.9062 14.7769H32.8978ZM27.0612 20.6084C25.2605 17.895 22.7218 16.5319 19.4325 16.3913C19.0698 16.4297 18.6312 16.4552 18.1968 16.5234C15.5274 16.9664 13.4399 18.321 11.9597 20.6127C11.8669 20.7575 11.7784 20.9066 11.7151 21.0642C11.5675 21.4519 11.6856 21.8225 12.0061 22.0397C12.335 22.2655 12.7778 22.2101 13.0646 21.8949C13.1616 21.7884 13.2459 21.6649 13.3176 21.5371C13.6803 20.9151 14.1484 20.3827 14.6882 19.9184C16.5311 18.3295 18.6523 17.7544 21.0223 18.2528C23.0002 18.666 24.5352 19.7735 25.6527 21.4774C25.7455 21.6223 25.8298 21.7756 25.9395 21.9034C26.1925 22.1931 26.61 22.2612 26.9389 22.0866C27.2679 21.9119 27.4324 21.52 27.3101 21.1409C27.251 20.9577 27.1625 20.7746 27.0528 20.6127L27.0612 20.6084Z" fill="#343434"/>
<path d="M17.2903 26.6915C17.3029 25.4434 18.2897 24.4424 19.5169 24.4339C20.7104 24.4296 21.7351 25.4732 21.7436 26.7085C21.752 27.9226 20.723 29.0557 19.538 29.0003C18.1126 28.9321 17.265 27.9226 17.2945 26.6915H17.2903Z" fill="#B8924D"/>
</g>
<defs>
<clipPath id="clip0_323_62">
<rect width="39" height="29.0002" fill="white"/>
</clipPath>
</defs>
</svg>
