<svg width="16" height="16" viewBox="0 0 16 16" fill="none" xmlns="http://www.w3.org/2000/svg">
<path fill-rule="evenodd" clip-rule="evenodd" d="M11.2543 9.57303C11.069 9.47579 10.1605 9.00724 9.9914 8.94198C9.82227 8.87737 9.69915 8.8454 9.57542 9.03987C9.4523 9.23303 9.09851 9.67027 8.99094 9.79948C8.88274 9.92934 8.77517 9.945 8.5905 9.84842C8.40583 9.75053 7.81016 9.54627 7.10443 8.88586C6.55539 8.37162 6.18418 7.73665 6.07661 7.54218C5.96904 7.34836 6.06479 7.2433 6.15744 7.14671C6.24076 7.05992 6.34211 6.92027 6.43476 6.80737C6.5274 6.69382 6.55787 6.6129 6.61943 6.48303C6.68161 6.35382 6.65052 6.24092 6.60388 6.14369C6.55787 6.04645 6.18853 5.09172 6.03433 4.70343C5.88447 4.32558 5.73214 4.37713 5.61897 4.37061C5.51078 4.36539 5.38766 4.36408 5.26455 4.36408C5.14144 4.36408 4.94122 4.41237 4.77209 4.60684C4.60234 4.80066 4.12543 5.26987 4.12543 6.22461C4.12543 7.17869 4.78701 8.10079 4.87966 8.23066C4.97231 8.35987 6.18231 10.3189 8.03587 11.1588C8.47734 11.3585 8.82119 11.4779 9.08918 11.5667C9.53189 11.7148 9.93481 11.6939 10.2532 11.6437C10.6076 11.5882 11.3463 11.1745 11.5005 10.7216C11.6541 10.2687 11.6541 9.8804 11.608 9.79948C11.562 9.71856 11.4389 9.67027 11.2536 9.57303H11.2543ZM7.88291 14.4041H7.88042C6.7795 14.4043 5.69879 14.0937 4.75157 13.5049L4.52773 13.3652L2.20099 14.0061L2.82216 11.6254L2.67604 11.3813C2.06055 10.3531 1.73483 9.16306 1.73651 7.94874C1.73776 4.39214 4.49477 1.49857 7.88539 1.49857C9.52692 1.49857 11.0702 2.17074 12.2305 3.38977C12.8027 3.98792 13.2563 4.69923 13.565 5.48255C13.8737 6.26587 14.0313 7.10565 14.0287 7.95331C14.0274 11.5099 11.2704 14.4041 7.88291 14.4041ZM13.1134 2.46375C12.4283 1.73998 11.6132 1.1661 10.7152 0.775377C9.81726 0.38465 8.85435 0.18484 7.88228 0.187527C3.80707 0.187527 0.489204 3.66908 0.48796 7.94809C0.486072 9.30987 0.826447 10.6481 1.47474 11.8277L0.425781 15.8496L4.34554 14.7702C5.42987 15.3903 6.64498 15.7151 7.8798 15.7152H7.88291C11.9581 15.7152 15.276 12.2336 15.2772 7.95396C15.2802 6.93415 15.0905 5.92383 14.7191 4.98145C14.3477 4.03907 13.8019 3.18334 13.1134 2.46375Z" fill="#B8924D"/>
</svg>
